<svg width="50" height="39" viewBox="0 0 50 39" fill="none" xmlns="http://www.w3.org/2000/svg">
<path d="M44.056 20.2131L35.5629 24.5756C34.8275 23.8346 33.809 23.3749 32.6851 23.3749H26.8325C26.5722 23.3749 26.4769 23.3589 26.4483 23.3521C26.3952 23.3161 26.2629 23.1917 26.1557 23.0906L26.0997 23.0379C21.336 18.552 17.3107 18.8366 12.7328 20.6434C12.0163 20.926 12.0027 20.9266 11.2926 20.959L10.0034 20.9606C9.60093 19.8199 8.51365 19 7.23824 19H2.93205C1.31532 19 0 20.3168 0 21.9354V33.2288C0 34.8457 1.31532 36.161 2.93205 36.161H7.23813C8.51365 36.161 9.60093 35.342 10.0034 34.2025H12.3714C12.6394 34.2257 12.9008 34.2802 13.1556 34.3661L24.291 37.3437C24.7786 37.4759 25.2263 37.606 25.6593 37.7318C27.0974 38.1497 28.3062 38.501 29.5666 38.5008C30.9906 38.5008 32.4803 38.0525 34.4401 36.7452C34.4499 36.7387 34.4596 36.7321 34.4692 36.7253L48.1989 26.9483C50.0036 25.6607 50.5297 23.3365 49.4222 21.5412C48.3274 19.7712 46.0197 19.2006 44.056 20.2131ZM7.8632 33.229C7.8632 33.5678 7.57691 33.8541 7.23813 33.8541H2.93205C2.59315 33.8541 2.30697 33.5678 2.30697 33.229V21.9355C2.30697 21.5949 2.59327 21.3071 2.93205 21.3071H7.23813C7.57702 21.3071 7.8632 21.5949 7.8632 21.9355V33.229ZM46.8597 25.0699L33.1453 34.8359C30.3539 36.6938 29.1659 36.3484 26.3027 35.5165C25.86 35.3879 25.4022 35.2549 24.8907 35.1162L13.7523 32.1378C13.3042 31.9988 12.8437 31.918 12.3711 31.8956H10.1702V23.2688L11.3976 23.2636C12.2755 23.2236 12.5477 23.1964 13.5794 22.7894C17.5474 21.2232 20.6095 21.0367 24.5191 24.7184L24.5743 24.7703C25.2475 25.4042 25.6646 25.6818 26.8325 25.6818H32.6851C33.65 25.6818 34.4349 26.4669 34.4349 27.4318C34.4349 28.3949 33.65 29.1785 32.6851 29.1785H23.1968C22.5598 29.1785 22.0434 29.6949 22.0434 30.332C22.0434 30.969 22.5598 31.4855 23.1968 31.4855H32.6851C34.922 31.4855 36.7419 29.667 36.7419 27.4318C36.7419 27.1492 36.7126 26.8732 36.6573 26.6068L45.1115 22.2643C45.8821 21.8671 46.9363 21.9078 47.4593 22.7537C47.9204 23.5013 47.6623 24.4973 46.8597 25.0699V25.0699Z" fill="white"/>
<path d="M12.3438 10.4478C12.2607 11.5952 11.8359 12.4985 11.0693 13.1577C10.3076 13.8169 9.30176 14.1465 8.05176 14.1465C6.68457 14.1465 5.60791 13.6875 4.82178 12.7695C4.04053 11.8467 3.6499 10.582 3.6499 8.97559V8.32373C3.6499 7.29834 3.83057 6.39502 4.19189 5.61377C4.55322 4.83252 5.06836 4.23438 5.7373 3.81934C6.41113 3.39941 7.19238 3.18945 8.08105 3.18945C9.31152 3.18945 10.3027 3.51904 11.0547 4.17822C11.8066 4.8374 12.2412 5.7627 12.3584 6.9541H10.1611C10.1074 6.26562 9.91455 5.76758 9.58252 5.45996C9.25537 5.14746 8.75488 4.99121 8.08105 4.99121C7.34863 4.99121 6.79932 5.25488 6.43311 5.78223C6.07178 6.30469 5.88623 7.11768 5.87646 8.22119V9.02686C5.87646 10.1792 6.0498 11.0215 6.39648 11.5537C6.74805 12.0859 7.2998 12.3521 8.05176 12.3521C8.73047 12.3521 9.23584 12.1982 9.56787 11.8906C9.90479 11.5781 10.0977 11.0972 10.1465 10.4478H12.3438ZM22.5464 8.90967C22.5464 9.95947 22.3608 10.8799 21.9897 11.6709C21.6187 12.4619 21.0864 13.0723 20.3931 13.502C19.7046 13.9316 18.9136 14.1465 18.02 14.1465C17.1362 14.1465 16.3477 13.9341 15.6543 13.5093C14.9609 13.0845 14.4238 12.479 14.043 11.6929C13.6621 10.9019 13.4692 9.99365 13.4644 8.96826V8.44092C13.4644 7.39111 13.6523 6.46826 14.0283 5.67236C14.4092 4.87158 14.9438 4.25879 15.6323 3.83398C16.3257 3.4043 17.1167 3.18945 18.0054 3.18945C18.894 3.18945 19.6826 3.4043 20.3711 3.83398C21.0645 4.25879 21.5991 4.87158 21.9751 5.67236C22.356 6.46826 22.5464 7.38867 22.5464 8.43359V8.90967ZM20.3198 8.42627C20.3198 7.30811 20.1196 6.4585 19.7192 5.87744C19.3188 5.29639 18.7476 5.00586 18.0054 5.00586C17.2681 5.00586 16.6992 5.29395 16.2988 5.87012C15.8984 6.44141 15.6958 7.28125 15.6909 8.38965V8.90967C15.6909 9.99854 15.8911 10.8433 16.2915 11.4438C16.6919 12.0444 17.2681 12.3447 18.02 12.3447C18.7573 12.3447 19.3237 12.0566 19.7192 11.4805C20.1147 10.8994 20.3149 10.0547 20.3198 8.94629V8.42627ZM27.9224 11.356L30.3394 3.33594H32.7856L29.0723 14H26.7798L23.0811 3.33594H25.52L27.9224 11.356ZM36.1328 14H33.9355V3.33594H36.1328V14ZM38.1763 14V3.33594H41.4575C42.395 3.33594 43.2324 3.54834 43.9697 3.97314C44.7119 4.39307 45.2905 4.99365 45.7056 5.7749C46.1206 6.55127 46.3281 7.43506 46.3281 8.42627V8.91699C46.3281 9.9082 46.123 10.7896 45.7129 11.561C45.3076 12.3325 44.7339 12.9307 43.9917 13.3555C43.2495 13.7803 42.4121 13.9951 41.4795 14H38.1763ZM40.3735 5.11572V12.2349H41.4355C42.2949 12.2349 42.9517 11.9541 43.4058 11.3926C43.8599 10.8311 44.0918 10.0278 44.1016 8.98291V8.41895C44.1016 7.33496 43.877 6.51465 43.4277 5.95801C42.9785 5.39648 42.3218 5.11572 41.4575 5.11572H40.3735Z" fill="white"/>
</svg>
